<svg xmlns="http://www.w3.org/2000/svg" viewBox="0 0 64 64" fill="none" role="img" aria-label="Nano Banana">
  <defs>
    <linearGradient id="nb-bg" x1="8" y1="6" x2="56" y2="58" gradientUnits="userSpaceOnUse">
      <stop offset="0%" stop-color="#e2d4a8"/>
      <stop offset="45%" stop-color="#c9a962"/>
      <stop offset="100%" stop-color="#9a7b3a"/>
    </linearGradient>
    <linearGradient id="nb-banana" x1="18" y1="14" x2="48" y2="52" gradientUnits="userSpaceOnUse">
      <stop offset="0%" stop-color="#fff8e7"/>
      <stop offset="35%" stop-color="#f3de8a"/>
      <stop offset="100%" stop-color="#d4b04a"/>
    </linearGradient>
    <linearGradient id="nb-shine" x1="24" y1="18" x2="34" y2="46" gradientUnits="userSpaceOnUse">
      <stop offset="0%" stop-color="#ffffff" stop-opacity="0.75"/>
      <stop offset="100%" stop-color="#ffffff" stop-opacity="0"/>
    </linearGradient>
  </defs>
  <rect width="64" height="64" rx="14" fill="url(#nb-bg)"/>
  <path
    d="M39.5 13.5C47.8 15.2 52.2 24.8 49.1 35.6C46.4 45.1 36.8 52.2 27.4 51.1C19.6 50.2 14.8 42.4 16.4 33.5C18.1 24.1 27.2 16.4 36.8 14.2C37.6 14 38.6 13.7 39.5 13.5Z"
    fill="url(#nb-banana)"
    stroke="#8a6d2f"
    stroke-width="1.25"
    stroke-linejoin="round"
  />
  <path
    d="M36.8 14.2C34.6 13.4 32.8 12.2 31.6 10.6"
    stroke="#6f5824"
    stroke-width="2"
    stroke-linecap="round"
  />
  <path
    d="M31.6 10.6L30.2 8.4"
    stroke="#6f5824"
    stroke-width="1.75"
    stroke-linecap="round"
  />
  <path
    d="M28.5 22.5C31.8 28.2 32.4 36.1 29.2 42.8"
    stroke="url(#nb-shine)"
    stroke-width="2.25"
    stroke-linecap="round"
  />
  <ellipse cx="41.5" cy="24.5" rx="1.6" ry="2.4" fill="#fff8e7" opacity="0.35" transform="rotate(-18 41.5 24.5)"/>
</svg>
